<?xml version="1.0" encoding="UTF-8"?>
<svg width="80px" height="66px" viewBox="0 0 80 66" version="1.1" xmlns="http://www.w3.org/2000/svg" xmlns:xlink="http://www.w3.org/1999/xlink">
    <!-- Generator: Sketch 55.2 (78181) - https://sketchapp.com -->
    <title>img_atencao</title>
    <desc>Created with Sketch.</desc>
    <g id="Page-1" stroke="none" stroke-width="1" fill="none" fill-rule="evenodd" opacity="0.5">
        <g id="editar-pergunta/excluir-pergunta-popup" transform="translate(-1080.000000, -409.000000)">
            <g id="Group-7" transform="translate(922.000000, 355.000000)">
                <g id="img_atencao" transform="translate(158.000000, 54.000000)">
                    <path d="M40.8551978,3.34045456 C40.7716819,3.20265328 40.656103,3.08707437 40.5183017,3.00355844 C40.045989,2.71730831 39.4310523,2.86814184 39.1448022,3.34045456 L2.69556355,63.4816983 C2.60084234,63.6379883 2.55076138,63.817247 2.55076138,64 C2.55076138,64.5522847 2.99847663,65 3.55076138,65 L76.4492386,65 C76.6319916,65 76.8112503,64.949919 76.9675403,64.8551978 C77.4398531,64.5689477 77.5906866,63.954011 77.3044365,63.4816983 L40.8551978,3.34045456 Z" id="Triangle" stroke="#D0021B" stroke-width="2"></path>
                    <g id="Group-13" transform="translate(38.000000, 21.000000)" fill="#D0021B">
                        <rect id="Rectangle" x="1" y="0" width="2" height="30" rx="1"></rect>
                        <rect id="Rectangle-Copy-6" x="0" y="32" width="4" height="4" rx="2"></rect>
                    </g>
                </g>
            </g>
        </g>
    </g>
</svg>